<svg class="store-badge-svg" viewBox="0 0 120 40" xmlns="http://www.w3.org/2000/svg" aria-hidden="true">
        <path
          d="M110.1348.0001H9.5347c-.3667 0-.729 0-1.0948.002-.3061.002-.6098.0078-.9189.0127a13.2148 13.2148 0 00-2.0039.1767 6.665 6.665 0 00-1.9009.627 6.4378 6.4378 0 00-1.6186 1.1787 6.2584 6.2584 0 00-1.1782 1.621 6.6012 6.6012 0 00-.625 1.9034 12.993 12.993 0 00-.1792 2.002c-.0093.3066-.0103.6142-.0152.9209v23.1142c.0049.3105.0059.6113.0152.922a12.9923 12.9923 0 00.1792 2.0018 6.5876 6.5876 0 00.625 1.9043 6.2078 6.2078 0 001.1782 1.6143 6.2744 6.2744 0 001.6186 1.1787 6.7008 6.7008 0 001.9009.6308 13.4551 13.4551 0 002.0039.1768c.309.0068.6128.0107.919.0107.3657.002.728.002 1.0947.002h100.6c.3595 0 .7247 0 1.084-.002.3048 0 .6173-.0039.922-.0107a13.279 13.279 0 002-.1768 6.8043 6.8043 0 001.9082-.6308 6.2774 6.2774 0 001.6172-1.1787 6.3948 6.3948 0 001.1816-1.6143 6.6041 6.6041 0 00.619-1.9043 13.5064 13.5064 0 00.1857-2.0019c.004-.3106.004-.6114.004-.9219.008-.3633.008-.7246.008-1.0938V9.5363c0-.3663 0-.7295-.008-1.0918 0-.3067 0-.6143-.004-.921a13.5071 13.5071 0 00-.1856-2.002 6.6177 6.6177 0 00-.6191-1.9032 6.4662 6.4662 0 00-2.7988-2.7999 6.7675 6.7675 0 00-1.9082-.627 13.044 13.044 0 00-2-.1767c-.3047-.0049-.6172-.0108-.922-.0127-.3593-.002-.7245-.002-1.084-.002z"
          fill="#fff"
        />
        <path
          d="M8.4448 39.1251c-.3047 0-.602-.0039-.9043-.0107a12.6871 12.6871 0 01-1.8691-.163 5.8838 5.8838 0 01-1.6567-.548 5.4057 5.4057 0 01-1.397-1.0166 5.3208 5.3208 0 01-1.0206-1.3965 5.7219 5.7219 0 01-.543-1.6572 12.4135 12.4135 0 01-.1664-1.875c-.0064-.2109-.0147-.913-.0147-.913V8.4444s.0088-.6914.0147-.8946a12.3704 12.3704 0 01.1655-1.872 5.7555 5.7555 0 01.5435-1.6621 5.3735 5.3735 0 011.0151-1.398 5.5654 5.5654 0 011.4024-1.0225 5.823 5.823 0 011.6533-.5439A12.5859 12.5859 0 017.543.8874L8.4453.875H111.214l.913.0127a12.385 12.385 0 011.8585.1626 5.9383 5.9383 0 011.6709.5479 5.5937 5.5937 0 012.415 2.4199 5.7627 5.7627 0 01.5352 1.649 12.995 12.995 0 01.1738 1.8871c.003.2832.003.5874.003.8902.008.375.008.7319.008 1.0918v20.9286c0 .3633 0 .7178-.008 1.0752 0 .3252 0 .6231-.004.9297a12.7313 12.7313 0 01-.171 1.8535 5.739 5.739 0 01-.54 1.67 5.4803 5.4803 0 01-1.0155 1.3857 5.4129 5.4129 0 01-1.3994 1.0225 5.8617 5.8617 0 01-1.668.5498 12.5422 12.5422 0 01-1.8692.1631 39.1495 39.1495 0 01-.8974.0107l-1.084.002z"
          fill="#080808"
        />
        <svg x="6.5" y="9" width="22" height="22" viewBox="1.22 0.02 20.79 24.01" preserveAspectRatio="xMidYMid meet"><path d="M22.018 13.298l-3.919 2.218-3.515-3.493 3.543-3.521 3.891 2.202a1.49 1.49 0 0 1 0 2.594zM1.337.924a1.486 1.486 0 0 0-.112.568v21.017c0 .217.045.419.124.6l11.155-11.087L1.337.924zm12.207 10.065l3.258-3.238L3.45.195a1.466 1.466 0 0 0-.946-.179l11.04 10.973zm0 2.067l-11 10.933c.298.036.612-.016.906-.183l13.324-7.54-3.23-3.21z" fill="#fff" /></svg>
        <svg x="35.67" y="8.44" width="52.84" height="6.35" viewBox="35.67 8.44 52.84 6.35"><path d="M37.8262 8.7311a2.6396 2.6396 0 012.8076 2.9649c0 1.9062-1.0303 3.002-2.8076 3.002h-2.1553V8.731zm-1.2285 5.123h1.125a1.8759 1.8759 0 001.9677-2.146 1.881 1.881 0 00-1.9677-2.1338h-1.125zm5.083-1.4096a2.1332 2.1332 0 114.247 0 2.1336 2.1336 0 11-4.247 0zm3.333 0c0-.9761-.4385-1.5469-1.208-1.5469-.7725 0-1.207.5708-1.207 1.5469 0 .9839.4346 1.5503 1.207 1.5503.7695 0 1.208-.5703 1.208-1.5503zm6.5596 2.2534h-.922l-.9306-3.3164h-.0703l-.9267 3.3164h-.9131l-1.2412-4.503h.9013l.8067 3.436h.0664l.9258-3.436h.8525l.9258 3.436h.0703l.8027-3.436h.8887zm2.2802-4.5029h.8555v.7153h.0664a1.348 1.348 0 011.3438-.8023 1.4646 1.4646 0 011.5586 1.6748v2.915h-.8887V12.006c0-.7236-.3145-1.0835-.9717-1.0835a1.033 1.033 0 00-1.0752 1.1411v2.6343h-.8887zm5.2403-1.7579h.8886v6.2608h-.8886zm2.124 4.0074a2.1335 2.1335 0 114.2476 0 2.1338 2.1338 0 11-4.2476 0zm3.333 0c0-.9761-.4385-1.5469-1.208-1.5469-.7725 0-1.207.5708-1.207 1.5469 0 .9839.4346 1.5503 1.207 1.5503.7695 0 1.208-.5703 1.208-1.5503zm1.8501.98c0-.8106.6035-1.2779 1.6748-1.3443l1.2197-.0703v-.3887c0-.4756-.3144-.7441-.9218-.7441-.4961 0-.8399.1821-.9385.5005h-.8604c.0908-.7735.8184-1.2695 1.8399-1.2695 1.1289 0 1.7656.562 1.7656 1.5131v3.0767h-.8555v-.6328h-.0703a1.515 1.515 0 01-1.3525.707 1.3603 1.3603 0 01-1.501-1.3476zm2.8945-.3848v-.3765l-1.0996.0703c-.6201.0415-.9014.2525-.9014.6494 0 .4053.3516.6412.835.6412a1.0615 1.0615 0 001.166-.9844zm2.0528-.5952c0-1.4229.7314-2.3242 1.8691-2.3242a1.484 1.484 0 011.3809.79h.0664V8.437h.8886v6.2608h-.8515v-.7115h-.0703a1.5628 1.5628 0 01-1.414.7857c-1.1456 0-1.8692-.9014-1.8692-2.3276zm.918 0c0 .955.4502 1.5298 1.203 1.5298.749 0 1.212-.583 1.212-1.526 0-.9384-.4678-1.5297-1.212-1.5297-.748 0-1.203.5786-1.203 1.5259zm6.9638 0a2.1332 2.1332 0 114.247 0 2.1336 2.1336 0 11-4.247 0zm3.333 0c0-.9761-.4385-1.5469-1.208-1.5469-.7725 0-1.207.5708-1.207 1.5469 0 .9839.4346 1.5503 1.207 1.5503.7695 0 1.208-.5703 1.208-1.5503zm2.1064-2.2495h.8555v.7153h.0664a1.348 1.348 0 011.3438-.8023 1.4646 1.4646 0 011.5586 1.6748v2.915h-.8887V12.006c0-.7236-.3145-1.0835-.9717-1.0835a1.033 1.033 0 00-1.0752 1.1411v2.6343h-.8886z" fill="#fff" /></svg>
        <text
          x="36"
          y="32"
          class="store-badge-label" fill="#fff" font-family="Mona Sans, sans-serif" font-size="12.5" font-weight="800"
        >
          Google Play
        </text>
      </svg>
